# xmcd
#
# Track frame offsets: 
#        150
#        16202
#        34667
#        59170
#        75342
#        97652
#        113190
#        129197
#        159687
#        180950
#        200245
#
# Disc length: 2856 seconds
#
# Revision: 0
# Processed by: cddbd v1.5.2PL0 Copyright (c) Steve Scherf et al.
# Submitted via: ExactAudioCopy v0.99pb3
#
DISCID=820b260b
DTITLE=Be Careful - Down Payment Blues
DYEAR=1996
DGENRE=
TTITLE0=Automatic
TTITLE1=Born In Chicago
TTITLE2=Hootchie Cootchie Man
TTITLE3=Cut That Out
TTITLE4=Sugar Mama
TTITLE5=Don't Answer The Door
TTITLE6=Woman
TTITLE7=The Sky Is Cryin
TTITLE8=It's Going Round/Circulation Blues
TTITLE9=Agnes Grey
TTITLE10=Bag Full Of Boogie
EXTD=
EXTT0=
EXTT1=
EXTT2=
EXTT3=
EXTT4=
EXTT5=
EXTT6=
EXTT7=
EXTT8=
EXTT9=
EXTT10=
PLAYORDER=
